<?xml version="1.0" encoding="UTF-8" standalone="no"?>
<svg xmlns:svg="http://www.w3.org/2000/svg"
	 xmlns="http://www.w3.org/2000/svg"
	 xmlns:sodipodi="http://sodipodi.sourceforge.net/DTD/sodipodi-0.dtd"
	 version="1.1"
	 id="svg8"
	 height="2998"
	 width="2850">
	
<style>
	.hex {
		fill: rgb(0, 176, 0);
		stroke: rgb(40, 96, 0);
		stroke-width: 50;
		stroke-linecap: round;
		stroke-linejoin: miter;
		stroke-opacity:1
	}
	
	.light {
		fill: rgb(80, 224, 40);
	}
	
	.dark {
		fill: rgb(80, 128, 40);
	}
</style>
	<!--path style="fill: transparent;	stroke: transparent;" d="M 0,0 L 2850,0 L 2850,2998 L 0,2998 Z" /-->
	
	<path class="hex light" d="M 100,1016 L 350,1449 L 850,1449 L 1100,1016 L 850,583 L 350,583 Z" />
	<path class="hex" d="M 100,1982 L 350,2415 L 850,2415 L 1100,1982 L 850,1549 L 350,1549 Z" />
	
	<path class="hex light" d="M 930,533 L 1180,966 L 1680,966 L 1930,533 L 1680,100 L 1180,100 Z" />
	<path class="hex" d="M 930,1499 L 1180,1932 L 1680,1932 L 1930,1499 L 1680,1066 L 1180,1066 Z" />
	<path class="hex dark" d="M 930,2465 L 1180,2898 L 1680,2898 L 1930,2465 L 1680,2032 L 1180,2032 Z" />
	
	<path class="hex" d="M 1750,1016 L 2000,1449 L 2500,1449 L 2750,1016 L 2500,583 L 2000,583 Z" />
	<path class="hex dark" d="M 1750,1982 L 2000,2415 L 2500,2415 L 2750,1982 L 2500,1549 L 2000,1549 Z" />
</svg>